M48
METRIC,TZ
T1C0.400
T2C1.000
T3C1.100
T4C3.000
%
G90
G05
T1
X112713Y-81153
X117285Y-76454
X119634Y-88709
X123444Y-113030
X125413Y-82741
X127381Y-93726
X129476Y-94551
X135573Y-101727
X142431Y-78931
X144717Y-78486
X145923Y-99886
X149796Y-99568
X157925Y-103124
X164465Y-89726
X168846Y-84582
X175641Y-76518
X179959Y-79947
T2
X174498Y-67564
X177038Y-67564
X157290Y-107124
X157290Y-109157
X157290Y-111189
X164148Y-118047
X166179Y-118047
X168212Y-118047
X116523Y-67564
X119063Y-67564
X117475Y-107124
X117475Y-109157
X117475Y-111189
X124333Y-118047
X126365Y-118047
X128397Y-118047
T3
X138659Y-68182
X138659Y-70722
X138659Y-73262
X138659Y-75801
X138659Y-78342
X138659Y-80882
X138659Y-83422
X138659Y-85962
X138659Y-88501
X138659Y-91042
X138659Y-93582
X138659Y-96122
X153899Y-68182
X153899Y-70722
X153899Y-73262
X153899Y-75801
X153899Y-78342
X153899Y-80882
X153899Y-83422
X153899Y-85962
X153899Y-88501
X153899Y-91042
X153899Y-93582
X153899Y-96122
T4
X167196Y-67501
X113728Y-117411
X179578Y-117411
X126365Y-67501
T0
M30
