G04 #@! TF.GenerationSoftware,KiCad,Pcbnew,5.0.2+dfsg1-1~bpo9+1*
G04 #@! TF.CreationDate,2019-05-16T11:20:28+01:00*
G04 #@! TF.ProjectId,arduino_controller_psp_stick,61726475-696e-46f5-9f63-6f6e74726f6c,rev?*
G04 #@! TF.SameCoordinates,Original*
G04 #@! TF.FileFunction,Soldermask,Top*
G04 #@! TF.FilePolarity,Negative*
%FSLAX46Y46*%
G04 Gerber Fmt 4.6, Leading zero omitted, Abs format (unit mm)*
G04 Created by KiCad (PCBNEW 5.0.2+dfsg1-1~bpo9+1) date Thu 16 May 2019 11:20:28 BST*
%MOMM*%
%LPD*%
G01*
G04 APERTURE LIST*
%ADD10C,0.100000*%
G04 APERTURE END LIST*
D10*
G36*
X180103331Y-115679711D02*
X180431092Y-115815474D01*
X180726073Y-116012574D01*
X180976926Y-116263427D01*
X181174026Y-116558408D01*
X181309789Y-116886169D01*
X181379000Y-117234116D01*
X181379000Y-117588884D01*
X181309789Y-117936831D01*
X181174026Y-118264592D01*
X180976926Y-118559573D01*
X180726073Y-118810426D01*
X180431092Y-119007526D01*
X180103331Y-119143289D01*
X179755384Y-119212500D01*
X179400616Y-119212500D01*
X179052669Y-119143289D01*
X178724908Y-119007526D01*
X178429927Y-118810426D01*
X178179074Y-118559573D01*
X177981974Y-118264592D01*
X177846211Y-117936831D01*
X177777000Y-117588884D01*
X177777000Y-117234116D01*
X177846211Y-116886169D01*
X177981974Y-116558408D01*
X178179074Y-116263427D01*
X178429927Y-116012574D01*
X178724908Y-115815474D01*
X179052669Y-115679711D01*
X179400616Y-115610500D01*
X179755384Y-115610500D01*
X180103331Y-115679711D01*
X180103331Y-115679711D01*
G37*
G36*
X114253831Y-115679711D02*
X114581592Y-115815474D01*
X114876573Y-116012574D01*
X115127426Y-116263427D01*
X115324526Y-116558408D01*
X115460289Y-116886169D01*
X115529500Y-117234116D01*
X115529500Y-117588884D01*
X115460289Y-117936831D01*
X115324526Y-118264592D01*
X115127426Y-118559573D01*
X114876573Y-118810426D01*
X114581592Y-119007526D01*
X114253831Y-119143289D01*
X113905884Y-119212500D01*
X113551116Y-119212500D01*
X113203169Y-119143289D01*
X112875408Y-119007526D01*
X112580427Y-118810426D01*
X112329574Y-118559573D01*
X112132474Y-118264592D01*
X111996711Y-117936831D01*
X111927500Y-117588884D01*
X111927500Y-117234116D01*
X111996711Y-116886169D01*
X112132474Y-116558408D01*
X112329574Y-116263427D01*
X112580427Y-116012574D01*
X112875408Y-115815474D01*
X113203169Y-115679711D01*
X113551116Y-115610500D01*
X113905884Y-115610500D01*
X114253831Y-115679711D01*
X114253831Y-115679711D01*
G37*
G36*
X126613228Y-117228203D02*
X126768100Y-117292353D01*
X126907481Y-117385485D01*
X127026015Y-117504019D01*
X127119147Y-117643400D01*
X127183297Y-117798272D01*
X127216000Y-117962684D01*
X127216000Y-118130316D01*
X127183297Y-118294728D01*
X127119147Y-118449600D01*
X127026015Y-118588981D01*
X126907481Y-118707515D01*
X126768100Y-118800647D01*
X126613228Y-118864797D01*
X126448816Y-118897500D01*
X126281184Y-118897500D01*
X126116772Y-118864797D01*
X125961900Y-118800647D01*
X125822519Y-118707515D01*
X125703985Y-118588981D01*
X125610853Y-118449600D01*
X125546703Y-118294728D01*
X125514000Y-118130316D01*
X125514000Y-117962684D01*
X125546703Y-117798272D01*
X125610853Y-117643400D01*
X125703985Y-117504019D01*
X125822519Y-117385485D01*
X125961900Y-117292353D01*
X126116772Y-117228203D01*
X126281184Y-117195500D01*
X126448816Y-117195500D01*
X126613228Y-117228203D01*
X126613228Y-117228203D01*
G37*
G36*
X128645228Y-117228203D02*
X128800100Y-117292353D01*
X128939481Y-117385485D01*
X129058015Y-117504019D01*
X129151147Y-117643400D01*
X129215297Y-117798272D01*
X129248000Y-117962684D01*
X129248000Y-118130316D01*
X129215297Y-118294728D01*
X129151147Y-118449600D01*
X129058015Y-118588981D01*
X128939481Y-118707515D01*
X128800100Y-118800647D01*
X128645228Y-118864797D01*
X128480816Y-118897500D01*
X128313184Y-118897500D01*
X128148772Y-118864797D01*
X127993900Y-118800647D01*
X127854519Y-118707515D01*
X127735985Y-118588981D01*
X127642853Y-118449600D01*
X127578703Y-118294728D01*
X127546000Y-118130316D01*
X127546000Y-117962684D01*
X127578703Y-117798272D01*
X127642853Y-117643400D01*
X127735985Y-117504019D01*
X127854519Y-117385485D01*
X127993900Y-117292353D01*
X128148772Y-117228203D01*
X128313184Y-117195500D01*
X128480816Y-117195500D01*
X128645228Y-117228203D01*
X128645228Y-117228203D01*
G37*
G36*
X124581228Y-117228203D02*
X124736100Y-117292353D01*
X124875481Y-117385485D01*
X124994015Y-117504019D01*
X125087147Y-117643400D01*
X125151297Y-117798272D01*
X125184000Y-117962684D01*
X125184000Y-118130316D01*
X125151297Y-118294728D01*
X125087147Y-118449600D01*
X124994015Y-118588981D01*
X124875481Y-118707515D01*
X124736100Y-118800647D01*
X124581228Y-118864797D01*
X124416816Y-118897500D01*
X124249184Y-118897500D01*
X124084772Y-118864797D01*
X123929900Y-118800647D01*
X123790519Y-118707515D01*
X123671985Y-118588981D01*
X123578853Y-118449600D01*
X123514703Y-118294728D01*
X123482000Y-118130316D01*
X123482000Y-117962684D01*
X123514703Y-117798272D01*
X123578853Y-117643400D01*
X123671985Y-117504019D01*
X123790519Y-117385485D01*
X123929900Y-117292353D01*
X124084772Y-117228203D01*
X124249184Y-117195500D01*
X124416816Y-117195500D01*
X124581228Y-117228203D01*
X124581228Y-117228203D01*
G37*
G36*
X164395728Y-117228203D02*
X164550600Y-117292353D01*
X164689981Y-117385485D01*
X164808515Y-117504019D01*
X164901647Y-117643400D01*
X164965797Y-117798272D01*
X164998500Y-117962684D01*
X164998500Y-118130316D01*
X164965797Y-118294728D01*
X164901647Y-118449600D01*
X164808515Y-118588981D01*
X164689981Y-118707515D01*
X164550600Y-118800647D01*
X164395728Y-118864797D01*
X164231316Y-118897500D01*
X164063684Y-118897500D01*
X163899272Y-118864797D01*
X163744400Y-118800647D01*
X163605019Y-118707515D01*
X163486485Y-118588981D01*
X163393353Y-118449600D01*
X163329203Y-118294728D01*
X163296500Y-118130316D01*
X163296500Y-117962684D01*
X163329203Y-117798272D01*
X163393353Y-117643400D01*
X163486485Y-117504019D01*
X163605019Y-117385485D01*
X163744400Y-117292353D01*
X163899272Y-117228203D01*
X164063684Y-117195500D01*
X164231316Y-117195500D01*
X164395728Y-117228203D01*
X164395728Y-117228203D01*
G37*
G36*
X168459728Y-117228203D02*
X168614600Y-117292353D01*
X168753981Y-117385485D01*
X168872515Y-117504019D01*
X168965647Y-117643400D01*
X169029797Y-117798272D01*
X169062500Y-117962684D01*
X169062500Y-118130316D01*
X169029797Y-118294728D01*
X168965647Y-118449600D01*
X168872515Y-118588981D01*
X168753981Y-118707515D01*
X168614600Y-118800647D01*
X168459728Y-118864797D01*
X168295316Y-118897500D01*
X168127684Y-118897500D01*
X167963272Y-118864797D01*
X167808400Y-118800647D01*
X167669019Y-118707515D01*
X167550485Y-118588981D01*
X167457353Y-118449600D01*
X167393203Y-118294728D01*
X167360500Y-118130316D01*
X167360500Y-117962684D01*
X167393203Y-117798272D01*
X167457353Y-117643400D01*
X167550485Y-117504019D01*
X167669019Y-117385485D01*
X167808400Y-117292353D01*
X167963272Y-117228203D01*
X168127684Y-117195500D01*
X168295316Y-117195500D01*
X168459728Y-117228203D01*
X168459728Y-117228203D01*
G37*
G36*
X166427728Y-117228203D02*
X166582600Y-117292353D01*
X166721981Y-117385485D01*
X166840515Y-117504019D01*
X166933647Y-117643400D01*
X166997797Y-117798272D01*
X167030500Y-117962684D01*
X167030500Y-118130316D01*
X166997797Y-118294728D01*
X166933647Y-118449600D01*
X166840515Y-118588981D01*
X166721981Y-118707515D01*
X166582600Y-118800647D01*
X166427728Y-118864797D01*
X166263316Y-118897500D01*
X166095684Y-118897500D01*
X165931272Y-118864797D01*
X165776400Y-118800647D01*
X165637019Y-118707515D01*
X165518485Y-118588981D01*
X165425353Y-118449600D01*
X165361203Y-118294728D01*
X165328500Y-118130316D01*
X165328500Y-117962684D01*
X165361203Y-117798272D01*
X165425353Y-117643400D01*
X165518485Y-117504019D01*
X165637019Y-117385485D01*
X165776400Y-117292353D01*
X165931272Y-117228203D01*
X166095684Y-117195500D01*
X166263316Y-117195500D01*
X166427728Y-117228203D01*
X166427728Y-117228203D01*
G37*
G36*
X117723228Y-110370203D02*
X117878100Y-110434353D01*
X118017481Y-110527485D01*
X118136015Y-110646019D01*
X118229147Y-110785400D01*
X118293297Y-110940272D01*
X118326000Y-111104684D01*
X118326000Y-111272316D01*
X118293297Y-111436728D01*
X118229147Y-111591600D01*
X118136015Y-111730981D01*
X118017481Y-111849515D01*
X117878100Y-111942647D01*
X117723228Y-112006797D01*
X117558816Y-112039500D01*
X117391184Y-112039500D01*
X117226772Y-112006797D01*
X117071900Y-111942647D01*
X116932519Y-111849515D01*
X116813985Y-111730981D01*
X116720853Y-111591600D01*
X116656703Y-111436728D01*
X116624000Y-111272316D01*
X116624000Y-111104684D01*
X116656703Y-110940272D01*
X116720853Y-110785400D01*
X116813985Y-110646019D01*
X116932519Y-110527485D01*
X117071900Y-110434353D01*
X117226772Y-110370203D01*
X117391184Y-110337500D01*
X117558816Y-110337500D01*
X117723228Y-110370203D01*
X117723228Y-110370203D01*
G37*
G36*
X157537728Y-110370203D02*
X157692600Y-110434353D01*
X157831981Y-110527485D01*
X157950515Y-110646019D01*
X158043647Y-110785400D01*
X158107797Y-110940272D01*
X158140500Y-111104684D01*
X158140500Y-111272316D01*
X158107797Y-111436728D01*
X158043647Y-111591600D01*
X157950515Y-111730981D01*
X157831981Y-111849515D01*
X157692600Y-111942647D01*
X157537728Y-112006797D01*
X157373316Y-112039500D01*
X157205684Y-112039500D01*
X157041272Y-112006797D01*
X156886400Y-111942647D01*
X156747019Y-111849515D01*
X156628485Y-111730981D01*
X156535353Y-111591600D01*
X156471203Y-111436728D01*
X156438500Y-111272316D01*
X156438500Y-111104684D01*
X156471203Y-110940272D01*
X156535353Y-110785400D01*
X156628485Y-110646019D01*
X156747019Y-110527485D01*
X156886400Y-110434353D01*
X157041272Y-110370203D01*
X157205684Y-110337500D01*
X157373316Y-110337500D01*
X157537728Y-110370203D01*
X157537728Y-110370203D01*
G37*
G36*
X117723228Y-108338203D02*
X117878100Y-108402353D01*
X118017481Y-108495485D01*
X118136015Y-108614019D01*
X118229147Y-108753400D01*
X118293297Y-108908272D01*
X118326000Y-109072684D01*
X118326000Y-109240316D01*
X118293297Y-109404728D01*
X118229147Y-109559600D01*
X118136015Y-109698981D01*
X118017481Y-109817515D01*
X117878100Y-109910647D01*
X117723228Y-109974797D01*
X117558816Y-110007500D01*
X117391184Y-110007500D01*
X117226772Y-109974797D01*
X117071900Y-109910647D01*
X116932519Y-109817515D01*
X116813985Y-109698981D01*
X116720853Y-109559600D01*
X116656703Y-109404728D01*
X116624000Y-109240316D01*
X116624000Y-109072684D01*
X116656703Y-108908272D01*
X116720853Y-108753400D01*
X116813985Y-108614019D01*
X116932519Y-108495485D01*
X117071900Y-108402353D01*
X117226772Y-108338203D01*
X117391184Y-108305500D01*
X117558816Y-108305500D01*
X117723228Y-108338203D01*
X117723228Y-108338203D01*
G37*
G36*
X157537728Y-108338203D02*
X157692600Y-108402353D01*
X157831981Y-108495485D01*
X157950515Y-108614019D01*
X158043647Y-108753400D01*
X158107797Y-108908272D01*
X158140500Y-109072684D01*
X158140500Y-109240316D01*
X158107797Y-109404728D01*
X158043647Y-109559600D01*
X157950515Y-109698981D01*
X157831981Y-109817515D01*
X157692600Y-109910647D01*
X157537728Y-109974797D01*
X157373316Y-110007500D01*
X157205684Y-110007500D01*
X157041272Y-109974797D01*
X156886400Y-109910647D01*
X156747019Y-109817515D01*
X156628485Y-109698981D01*
X156535353Y-109559600D01*
X156471203Y-109404728D01*
X156438500Y-109240316D01*
X156438500Y-109072684D01*
X156471203Y-108908272D01*
X156535353Y-108753400D01*
X156628485Y-108614019D01*
X156747019Y-108495485D01*
X156886400Y-108402353D01*
X157041272Y-108338203D01*
X157205684Y-108305500D01*
X157373316Y-108305500D01*
X157537728Y-108338203D01*
X157537728Y-108338203D01*
G37*
G36*
X117723228Y-106306203D02*
X117878100Y-106370353D01*
X118017481Y-106463485D01*
X118136015Y-106582019D01*
X118229147Y-106721400D01*
X118293297Y-106876272D01*
X118326000Y-107040684D01*
X118326000Y-107208316D01*
X118293297Y-107372728D01*
X118229147Y-107527600D01*
X118136015Y-107666981D01*
X118017481Y-107785515D01*
X117878100Y-107878647D01*
X117723228Y-107942797D01*
X117558816Y-107975500D01*
X117391184Y-107975500D01*
X117226772Y-107942797D01*
X117071900Y-107878647D01*
X116932519Y-107785515D01*
X116813985Y-107666981D01*
X116720853Y-107527600D01*
X116656703Y-107372728D01*
X116624000Y-107208316D01*
X116624000Y-107040684D01*
X116656703Y-106876272D01*
X116720853Y-106721400D01*
X116813985Y-106582019D01*
X116932519Y-106463485D01*
X117071900Y-106370353D01*
X117226772Y-106306203D01*
X117391184Y-106273500D01*
X117558816Y-106273500D01*
X117723228Y-106306203D01*
X117723228Y-106306203D01*
G37*
G36*
X157537728Y-106306203D02*
X157692600Y-106370353D01*
X157831981Y-106463485D01*
X157950515Y-106582019D01*
X158043647Y-106721400D01*
X158107797Y-106876272D01*
X158140500Y-107040684D01*
X158140500Y-107208316D01*
X158107797Y-107372728D01*
X158043647Y-107527600D01*
X157950515Y-107666981D01*
X157831981Y-107785515D01*
X157692600Y-107878647D01*
X157537728Y-107942797D01*
X157373316Y-107975500D01*
X157205684Y-107975500D01*
X157041272Y-107942797D01*
X156886400Y-107878647D01*
X156747019Y-107785515D01*
X156628485Y-107666981D01*
X156535353Y-107527600D01*
X156471203Y-107372728D01*
X156438500Y-107208316D01*
X156438500Y-107040684D01*
X156471203Y-106876272D01*
X156535353Y-106721400D01*
X156628485Y-106582019D01*
X156747019Y-106463485D01*
X156886400Y-106370353D01*
X157041272Y-106306203D01*
X157205684Y-106273500D01*
X157373316Y-106273500D01*
X157537728Y-106306203D01*
X157537728Y-106306203D01*
G37*
G36*
X144815000Y-103798000D02*
X142713000Y-103798000D01*
X142713000Y-102196000D01*
X144815000Y-102196000D01*
X144815000Y-103798000D01*
X144815000Y-103798000D01*
G37*
G36*
X149831500Y-103798000D02*
X147729500Y-103798000D01*
X147729500Y-102196000D01*
X149831500Y-102196000D01*
X149831500Y-103798000D01*
X149831500Y-103798000D01*
G37*
G36*
X138846000Y-103798000D02*
X136744000Y-103798000D01*
X136744000Y-102196000D01*
X138846000Y-102196000D01*
X138846000Y-103798000D01*
X138846000Y-103798000D01*
G37*
G36*
X155800500Y-103798000D02*
X153698500Y-103798000D01*
X153698500Y-102196000D01*
X155800500Y-102196000D01*
X155800500Y-103798000D01*
X155800500Y-103798000D01*
G37*
G36*
X138906728Y-95303203D02*
X139061600Y-95367353D01*
X139200981Y-95460485D01*
X139319515Y-95579019D01*
X139412647Y-95718400D01*
X139476797Y-95873272D01*
X139509500Y-96037684D01*
X139509500Y-96205316D01*
X139476797Y-96369728D01*
X139412647Y-96524600D01*
X139319515Y-96663981D01*
X139200981Y-96782515D01*
X139061600Y-96875647D01*
X138906728Y-96939797D01*
X138742316Y-96972500D01*
X138574684Y-96972500D01*
X138410272Y-96939797D01*
X138255400Y-96875647D01*
X138116019Y-96782515D01*
X137997485Y-96663981D01*
X137904353Y-96524600D01*
X137840203Y-96369728D01*
X137807500Y-96205316D01*
X137807500Y-96037684D01*
X137840203Y-95873272D01*
X137904353Y-95718400D01*
X137997485Y-95579019D01*
X138116019Y-95460485D01*
X138255400Y-95367353D01*
X138410272Y-95303203D01*
X138574684Y-95270500D01*
X138742316Y-95270500D01*
X138906728Y-95303203D01*
X138906728Y-95303203D01*
G37*
G36*
X154146728Y-95303203D02*
X154301600Y-95367353D01*
X154440981Y-95460485D01*
X154559515Y-95579019D01*
X154652647Y-95718400D01*
X154716797Y-95873272D01*
X154749500Y-96037684D01*
X154749500Y-96205316D01*
X154716797Y-96369728D01*
X154652647Y-96524600D01*
X154559515Y-96663981D01*
X154440981Y-96782515D01*
X154301600Y-96875647D01*
X154146728Y-96939797D01*
X153982316Y-96972500D01*
X153814684Y-96972500D01*
X153650272Y-96939797D01*
X153495400Y-96875647D01*
X153356019Y-96782515D01*
X153237485Y-96663981D01*
X153144353Y-96524600D01*
X153080203Y-96369728D01*
X153047500Y-96205316D01*
X153047500Y-96037684D01*
X153080203Y-95873272D01*
X153144353Y-95718400D01*
X153237485Y-95579019D01*
X153356019Y-95460485D01*
X153495400Y-95367353D01*
X153650272Y-95303203D01*
X153814684Y-95270500D01*
X153982316Y-95270500D01*
X154146728Y-95303203D01*
X154146728Y-95303203D01*
G37*
G36*
X138906728Y-92763203D02*
X139061600Y-92827353D01*
X139200981Y-92920485D01*
X139319515Y-93039019D01*
X139412647Y-93178400D01*
X139476797Y-93333272D01*
X139509500Y-93497684D01*
X139509500Y-93665316D01*
X139476797Y-93829728D01*
X139412647Y-93984600D01*
X139319515Y-94123981D01*
X139200981Y-94242515D01*
X139061600Y-94335647D01*
X138906728Y-94399797D01*
X138742316Y-94432500D01*
X138574684Y-94432500D01*
X138410272Y-94399797D01*
X138255400Y-94335647D01*
X138116019Y-94242515D01*
X137997485Y-94123981D01*
X137904353Y-93984600D01*
X137840203Y-93829728D01*
X137807500Y-93665316D01*
X137807500Y-93497684D01*
X137840203Y-93333272D01*
X137904353Y-93178400D01*
X137997485Y-93039019D01*
X138116019Y-92920485D01*
X138255400Y-92827353D01*
X138410272Y-92763203D01*
X138574684Y-92730500D01*
X138742316Y-92730500D01*
X138906728Y-92763203D01*
X138906728Y-92763203D01*
G37*
G36*
X154146728Y-92763203D02*
X154301600Y-92827353D01*
X154440981Y-92920485D01*
X154559515Y-93039019D01*
X154652647Y-93178400D01*
X154716797Y-93333272D01*
X154749500Y-93497684D01*
X154749500Y-93665316D01*
X154716797Y-93829728D01*
X154652647Y-93984600D01*
X154559515Y-94123981D01*
X154440981Y-94242515D01*
X154301600Y-94335647D01*
X154146728Y-94399797D01*
X153982316Y-94432500D01*
X153814684Y-94432500D01*
X153650272Y-94399797D01*
X153495400Y-94335647D01*
X153356019Y-94242515D01*
X153237485Y-94123981D01*
X153144353Y-93984600D01*
X153080203Y-93829728D01*
X153047500Y-93665316D01*
X153047500Y-93497684D01*
X153080203Y-93333272D01*
X153144353Y-93178400D01*
X153237485Y-93039019D01*
X153356019Y-92920485D01*
X153495400Y-92827353D01*
X153650272Y-92763203D01*
X153814684Y-92730500D01*
X153982316Y-92730500D01*
X154146728Y-92763203D01*
X154146728Y-92763203D01*
G37*
G36*
X138906728Y-90223203D02*
X139061600Y-90287353D01*
X139200981Y-90380485D01*
X139319515Y-90499019D01*
X139412647Y-90638400D01*
X139476797Y-90793272D01*
X139509500Y-90957684D01*
X139509500Y-91125316D01*
X139476797Y-91289728D01*
X139412647Y-91444600D01*
X139319515Y-91583981D01*
X139200981Y-91702515D01*
X139061600Y-91795647D01*
X138906728Y-91859797D01*
X138742316Y-91892500D01*
X138574684Y-91892500D01*
X138410272Y-91859797D01*
X138255400Y-91795647D01*
X138116019Y-91702515D01*
X137997485Y-91583981D01*
X137904353Y-91444600D01*
X137840203Y-91289728D01*
X137807500Y-91125316D01*
X137807500Y-90957684D01*
X137840203Y-90793272D01*
X137904353Y-90638400D01*
X137997485Y-90499019D01*
X138116019Y-90380485D01*
X138255400Y-90287353D01*
X138410272Y-90223203D01*
X138574684Y-90190500D01*
X138742316Y-90190500D01*
X138906728Y-90223203D01*
X138906728Y-90223203D01*
G37*
G36*
X154146728Y-90223203D02*
X154301600Y-90287353D01*
X154440981Y-90380485D01*
X154559515Y-90499019D01*
X154652647Y-90638400D01*
X154716797Y-90793272D01*
X154749500Y-90957684D01*
X154749500Y-91125316D01*
X154716797Y-91289728D01*
X154652647Y-91444600D01*
X154559515Y-91583981D01*
X154440981Y-91702515D01*
X154301600Y-91795647D01*
X154146728Y-91859797D01*
X153982316Y-91892500D01*
X153814684Y-91892500D01*
X153650272Y-91859797D01*
X153495400Y-91795647D01*
X153356019Y-91702515D01*
X153237485Y-91583981D01*
X153144353Y-91444600D01*
X153080203Y-91289728D01*
X153047500Y-91125316D01*
X153047500Y-90957684D01*
X153080203Y-90793272D01*
X153144353Y-90638400D01*
X153237485Y-90499019D01*
X153356019Y-90380485D01*
X153495400Y-90287353D01*
X153650272Y-90223203D01*
X153814684Y-90190500D01*
X153982316Y-90190500D01*
X154146728Y-90223203D01*
X154146728Y-90223203D01*
G37*
G36*
X121320000Y-91352000D02*
X119218000Y-91352000D01*
X119218000Y-89750000D01*
X121320000Y-89750000D01*
X121320000Y-91352000D01*
X121320000Y-91352000D01*
G37*
G36*
X127289000Y-91352000D02*
X125187000Y-91352000D01*
X125187000Y-89750000D01*
X127289000Y-89750000D01*
X127289000Y-91352000D01*
X127289000Y-91352000D01*
G37*
G36*
X174088500Y-91098000D02*
X171986500Y-91098000D01*
X171986500Y-89496000D01*
X174088500Y-89496000D01*
X174088500Y-91098000D01*
X174088500Y-91098000D01*
G37*
G36*
X168119500Y-91098000D02*
X166017500Y-91098000D01*
X166017500Y-89496000D01*
X168119500Y-89496000D01*
X168119500Y-91098000D01*
X168119500Y-91098000D01*
G37*
G36*
X138906728Y-87683203D02*
X139061600Y-87747353D01*
X139200981Y-87840485D01*
X139319515Y-87959019D01*
X139412647Y-88098400D01*
X139476797Y-88253272D01*
X139509500Y-88417684D01*
X139509500Y-88585316D01*
X139476797Y-88749728D01*
X139412647Y-88904600D01*
X139319515Y-89043981D01*
X139200981Y-89162515D01*
X139061600Y-89255647D01*
X138906728Y-89319797D01*
X138742316Y-89352500D01*
X138574684Y-89352500D01*
X138410272Y-89319797D01*
X138255400Y-89255647D01*
X138116019Y-89162515D01*
X137997485Y-89043981D01*
X137904353Y-88904600D01*
X137840203Y-88749728D01*
X137807500Y-88585316D01*
X137807500Y-88417684D01*
X137840203Y-88253272D01*
X137904353Y-88098400D01*
X137997485Y-87959019D01*
X138116019Y-87840485D01*
X138255400Y-87747353D01*
X138410272Y-87683203D01*
X138574684Y-87650500D01*
X138742316Y-87650500D01*
X138906728Y-87683203D01*
X138906728Y-87683203D01*
G37*
G36*
X154146728Y-87683203D02*
X154301600Y-87747353D01*
X154440981Y-87840485D01*
X154559515Y-87959019D01*
X154652647Y-88098400D01*
X154716797Y-88253272D01*
X154749500Y-88417684D01*
X154749500Y-88585316D01*
X154716797Y-88749728D01*
X154652647Y-88904600D01*
X154559515Y-89043981D01*
X154440981Y-89162515D01*
X154301600Y-89255647D01*
X154146728Y-89319797D01*
X153982316Y-89352500D01*
X153814684Y-89352500D01*
X153650272Y-89319797D01*
X153495400Y-89255647D01*
X153356019Y-89162515D01*
X153237485Y-89043981D01*
X153144353Y-88904600D01*
X153080203Y-88749728D01*
X153047500Y-88585316D01*
X153047500Y-88417684D01*
X153080203Y-88253272D01*
X153144353Y-88098400D01*
X153237485Y-87959019D01*
X153356019Y-87840485D01*
X153495400Y-87747353D01*
X153650272Y-87683203D01*
X153814684Y-87650500D01*
X153982316Y-87650500D01*
X154146728Y-87683203D01*
X154146728Y-87683203D01*
G37*
G36*
X154146728Y-85143203D02*
X154301600Y-85207353D01*
X154440981Y-85300485D01*
X154559515Y-85419019D01*
X154652647Y-85558400D01*
X154716797Y-85713272D01*
X154749500Y-85877684D01*
X154749500Y-86045316D01*
X154716797Y-86209728D01*
X154652647Y-86364600D01*
X154559515Y-86503981D01*
X154440981Y-86622515D01*
X154301600Y-86715647D01*
X154146728Y-86779797D01*
X153982316Y-86812500D01*
X153814684Y-86812500D01*
X153650272Y-86779797D01*
X153495400Y-86715647D01*
X153356019Y-86622515D01*
X153237485Y-86503981D01*
X153144353Y-86364600D01*
X153080203Y-86209728D01*
X153047500Y-86045316D01*
X153047500Y-85877684D01*
X153080203Y-85713272D01*
X153144353Y-85558400D01*
X153237485Y-85419019D01*
X153356019Y-85300485D01*
X153495400Y-85207353D01*
X153650272Y-85143203D01*
X153814684Y-85110500D01*
X153982316Y-85110500D01*
X154146728Y-85143203D01*
X154146728Y-85143203D01*
G37*
G36*
X138906728Y-85143203D02*
X139061600Y-85207353D01*
X139200981Y-85300485D01*
X139319515Y-85419019D01*
X139412647Y-85558400D01*
X139476797Y-85713272D01*
X139509500Y-85877684D01*
X139509500Y-86045316D01*
X139476797Y-86209728D01*
X139412647Y-86364600D01*
X139319515Y-86503981D01*
X139200981Y-86622515D01*
X139061600Y-86715647D01*
X138906728Y-86779797D01*
X138742316Y-86812500D01*
X138574684Y-86812500D01*
X138410272Y-86779797D01*
X138255400Y-86715647D01*
X138116019Y-86622515D01*
X137997485Y-86503981D01*
X137904353Y-86364600D01*
X137840203Y-86209728D01*
X137807500Y-86045316D01*
X137807500Y-85877684D01*
X137840203Y-85713272D01*
X137904353Y-85558400D01*
X137997485Y-85419019D01*
X138116019Y-85300485D01*
X138255400Y-85207353D01*
X138410272Y-85143203D01*
X138574684Y-85110500D01*
X138742316Y-85110500D01*
X138906728Y-85143203D01*
X138906728Y-85143203D01*
G37*
G36*
X154146728Y-82603203D02*
X154301600Y-82667353D01*
X154440981Y-82760485D01*
X154559515Y-82879019D01*
X154652647Y-83018400D01*
X154716797Y-83173272D01*
X154749500Y-83337684D01*
X154749500Y-83505316D01*
X154716797Y-83669728D01*
X154652647Y-83824600D01*
X154559515Y-83963981D01*
X154440981Y-84082515D01*
X154301600Y-84175647D01*
X154146728Y-84239797D01*
X153982316Y-84272500D01*
X153814684Y-84272500D01*
X153650272Y-84239797D01*
X153495400Y-84175647D01*
X153356019Y-84082515D01*
X153237485Y-83963981D01*
X153144353Y-83824600D01*
X153080203Y-83669728D01*
X153047500Y-83505316D01*
X153047500Y-83337684D01*
X153080203Y-83173272D01*
X153144353Y-83018400D01*
X153237485Y-82879019D01*
X153356019Y-82760485D01*
X153495400Y-82667353D01*
X153650272Y-82603203D01*
X153814684Y-82570500D01*
X153982316Y-82570500D01*
X154146728Y-82603203D01*
X154146728Y-82603203D01*
G37*
G36*
X138906728Y-82603203D02*
X139061600Y-82667353D01*
X139200981Y-82760485D01*
X139319515Y-82879019D01*
X139412647Y-83018400D01*
X139476797Y-83173272D01*
X139509500Y-83337684D01*
X139509500Y-83505316D01*
X139476797Y-83669728D01*
X139412647Y-83824600D01*
X139319515Y-83963981D01*
X139200981Y-84082515D01*
X139061600Y-84175647D01*
X138906728Y-84239797D01*
X138742316Y-84272500D01*
X138574684Y-84272500D01*
X138410272Y-84239797D01*
X138255400Y-84175647D01*
X138116019Y-84082515D01*
X137997485Y-83963981D01*
X137904353Y-83824600D01*
X137840203Y-83669728D01*
X137807500Y-83505316D01*
X137807500Y-83337684D01*
X137840203Y-83173272D01*
X137904353Y-83018400D01*
X137997485Y-82879019D01*
X138116019Y-82760485D01*
X138255400Y-82667353D01*
X138410272Y-82603203D01*
X138574684Y-82570500D01*
X138742316Y-82570500D01*
X138906728Y-82603203D01*
X138906728Y-82603203D01*
G37*
G36*
X114271500Y-84176500D02*
X112169500Y-84176500D01*
X112169500Y-82574500D01*
X114271500Y-82574500D01*
X114271500Y-84176500D01*
X114271500Y-84176500D01*
G37*
G36*
X120240500Y-84176500D02*
X118138500Y-84176500D01*
X118138500Y-82574500D01*
X120240500Y-82574500D01*
X120240500Y-84176500D01*
X120240500Y-84176500D01*
G37*
G36*
X128241500Y-84113000D02*
X126139500Y-84113000D01*
X126139500Y-82511000D01*
X128241500Y-82511000D01*
X128241500Y-84113000D01*
X128241500Y-84113000D01*
G37*
G36*
X134210500Y-84113000D02*
X132108500Y-84113000D01*
X132108500Y-82511000D01*
X134210500Y-82511000D01*
X134210500Y-84113000D01*
X134210500Y-84113000D01*
G37*
G36*
X167103500Y-84049500D02*
X165001500Y-84049500D01*
X165001500Y-82447500D01*
X167103500Y-82447500D01*
X167103500Y-84049500D01*
X167103500Y-84049500D01*
G37*
G36*
X161134500Y-84049500D02*
X159032500Y-84049500D01*
X159032500Y-82447500D01*
X161134500Y-82447500D01*
X161134500Y-84049500D01*
X161134500Y-84049500D01*
G37*
G36*
X181200500Y-83986000D02*
X179098500Y-83986000D01*
X179098500Y-82384000D01*
X181200500Y-82384000D01*
X181200500Y-83986000D01*
X181200500Y-83986000D01*
G37*
G36*
X175231500Y-83986000D02*
X173129500Y-83986000D01*
X173129500Y-82384000D01*
X175231500Y-82384000D01*
X175231500Y-83986000D01*
X175231500Y-83986000D01*
G37*
G36*
X138906728Y-80063203D02*
X139061600Y-80127353D01*
X139200981Y-80220485D01*
X139319515Y-80339019D01*
X139412647Y-80478400D01*
X139476797Y-80633272D01*
X139509500Y-80797684D01*
X139509500Y-80965316D01*
X139476797Y-81129728D01*
X139412647Y-81284600D01*
X139319515Y-81423981D01*
X139200981Y-81542515D01*
X139061600Y-81635647D01*
X138906728Y-81699797D01*
X138742316Y-81732500D01*
X138574684Y-81732500D01*
X138410272Y-81699797D01*
X138255400Y-81635647D01*
X138116019Y-81542515D01*
X137997485Y-81423981D01*
X137904353Y-81284600D01*
X137840203Y-81129728D01*
X137807500Y-80965316D01*
X137807500Y-80797684D01*
X137840203Y-80633272D01*
X137904353Y-80478400D01*
X137997485Y-80339019D01*
X138116019Y-80220485D01*
X138255400Y-80127353D01*
X138410272Y-80063203D01*
X138574684Y-80030500D01*
X138742316Y-80030500D01*
X138906728Y-80063203D01*
X138906728Y-80063203D01*
G37*
G36*
X154146728Y-80063203D02*
X154301600Y-80127353D01*
X154440981Y-80220485D01*
X154559515Y-80339019D01*
X154652647Y-80478400D01*
X154716797Y-80633272D01*
X154749500Y-80797684D01*
X154749500Y-80965316D01*
X154716797Y-81129728D01*
X154652647Y-81284600D01*
X154559515Y-81423981D01*
X154440981Y-81542515D01*
X154301600Y-81635647D01*
X154146728Y-81699797D01*
X153982316Y-81732500D01*
X153814684Y-81732500D01*
X153650272Y-81699797D01*
X153495400Y-81635647D01*
X153356019Y-81542515D01*
X153237485Y-81423981D01*
X153144353Y-81284600D01*
X153080203Y-81129728D01*
X153047500Y-80965316D01*
X153047500Y-80797684D01*
X153080203Y-80633272D01*
X153144353Y-80478400D01*
X153237485Y-80339019D01*
X153356019Y-80220485D01*
X153495400Y-80127353D01*
X153650272Y-80063203D01*
X153814684Y-80030500D01*
X153982316Y-80030500D01*
X154146728Y-80063203D01*
X154146728Y-80063203D01*
G37*
G36*
X154146728Y-77523203D02*
X154301600Y-77587353D01*
X154440981Y-77680485D01*
X154559515Y-77799019D01*
X154652647Y-77938400D01*
X154716797Y-78093272D01*
X154749500Y-78257684D01*
X154749500Y-78425316D01*
X154716797Y-78589728D01*
X154652647Y-78744600D01*
X154559515Y-78883981D01*
X154440981Y-79002515D01*
X154301600Y-79095647D01*
X154146728Y-79159797D01*
X153982316Y-79192500D01*
X153814684Y-79192500D01*
X153650272Y-79159797D01*
X153495400Y-79095647D01*
X153356019Y-79002515D01*
X153237485Y-78883981D01*
X153144353Y-78744600D01*
X153080203Y-78589728D01*
X153047500Y-78425316D01*
X153047500Y-78257684D01*
X153080203Y-78093272D01*
X153144353Y-77938400D01*
X153237485Y-77799019D01*
X153356019Y-77680485D01*
X153495400Y-77587353D01*
X153650272Y-77523203D01*
X153814684Y-77490500D01*
X153982316Y-77490500D01*
X154146728Y-77523203D01*
X154146728Y-77523203D01*
G37*
G36*
X138906728Y-77523203D02*
X139061600Y-77587353D01*
X139200981Y-77680485D01*
X139319515Y-77799019D01*
X139412647Y-77938400D01*
X139476797Y-78093272D01*
X139509500Y-78257684D01*
X139509500Y-78425316D01*
X139476797Y-78589728D01*
X139412647Y-78744600D01*
X139319515Y-78883981D01*
X139200981Y-79002515D01*
X139061600Y-79095647D01*
X138906728Y-79159797D01*
X138742316Y-79192500D01*
X138574684Y-79192500D01*
X138410272Y-79159797D01*
X138255400Y-79095647D01*
X138116019Y-79002515D01*
X137997485Y-78883981D01*
X137904353Y-78744600D01*
X137840203Y-78589728D01*
X137807500Y-78425316D01*
X137807500Y-78257684D01*
X137840203Y-78093272D01*
X137904353Y-77938400D01*
X137997485Y-77799019D01*
X138116019Y-77680485D01*
X138255400Y-77587353D01*
X138410272Y-77523203D01*
X138574684Y-77490500D01*
X138742316Y-77490500D01*
X138906728Y-77523203D01*
X138906728Y-77523203D01*
G37*
G36*
X127289000Y-77255000D02*
X125187000Y-77255000D01*
X125187000Y-75653000D01*
X127289000Y-75653000D01*
X127289000Y-77255000D01*
X127289000Y-77255000D01*
G37*
G36*
X121320000Y-77255000D02*
X119218000Y-77255000D01*
X119218000Y-75653000D01*
X121320000Y-75653000D01*
X121320000Y-77255000D01*
X121320000Y-77255000D01*
G37*
G36*
X174025000Y-77128000D02*
X171923000Y-77128000D01*
X171923000Y-75526000D01*
X174025000Y-75526000D01*
X174025000Y-77128000D01*
X174025000Y-77128000D01*
G37*
G36*
X168056000Y-77128000D02*
X165954000Y-77128000D01*
X165954000Y-75526000D01*
X168056000Y-75526000D01*
X168056000Y-77128000D01*
X168056000Y-77128000D01*
G37*
G36*
X154146728Y-74983203D02*
X154301600Y-75047353D01*
X154440981Y-75140485D01*
X154559515Y-75259019D01*
X154652647Y-75398400D01*
X154716797Y-75553272D01*
X154749500Y-75717684D01*
X154749500Y-75885316D01*
X154716797Y-76049728D01*
X154652647Y-76204600D01*
X154559515Y-76343981D01*
X154440981Y-76462515D01*
X154301600Y-76555647D01*
X154146728Y-76619797D01*
X153982316Y-76652500D01*
X153814684Y-76652500D01*
X153650272Y-76619797D01*
X153495400Y-76555647D01*
X153356019Y-76462515D01*
X153237485Y-76343981D01*
X153144353Y-76204600D01*
X153080203Y-76049728D01*
X153047500Y-75885316D01*
X153047500Y-75717684D01*
X153080203Y-75553272D01*
X153144353Y-75398400D01*
X153237485Y-75259019D01*
X153356019Y-75140485D01*
X153495400Y-75047353D01*
X153650272Y-74983203D01*
X153814684Y-74950500D01*
X153982316Y-74950500D01*
X154146728Y-74983203D01*
X154146728Y-74983203D01*
G37*
G36*
X138906728Y-74983203D02*
X139061600Y-75047353D01*
X139200981Y-75140485D01*
X139319515Y-75259019D01*
X139412647Y-75398400D01*
X139476797Y-75553272D01*
X139509500Y-75717684D01*
X139509500Y-75885316D01*
X139476797Y-76049728D01*
X139412647Y-76204600D01*
X139319515Y-76343981D01*
X139200981Y-76462515D01*
X139061600Y-76555647D01*
X138906728Y-76619797D01*
X138742316Y-76652500D01*
X138574684Y-76652500D01*
X138410272Y-76619797D01*
X138255400Y-76555647D01*
X138116019Y-76462515D01*
X137997485Y-76343981D01*
X137904353Y-76204600D01*
X137840203Y-76049728D01*
X137807500Y-75885316D01*
X137807500Y-75717684D01*
X137840203Y-75553272D01*
X137904353Y-75398400D01*
X137997485Y-75259019D01*
X138116019Y-75140485D01*
X138255400Y-75047353D01*
X138410272Y-74983203D01*
X138574684Y-74950500D01*
X138742316Y-74950500D01*
X138906728Y-74983203D01*
X138906728Y-74983203D01*
G37*
G36*
X138906728Y-72443203D02*
X139061600Y-72507353D01*
X139200981Y-72600485D01*
X139319515Y-72719019D01*
X139412647Y-72858400D01*
X139476797Y-73013272D01*
X139509500Y-73177684D01*
X139509500Y-73345316D01*
X139476797Y-73509728D01*
X139412647Y-73664600D01*
X139319515Y-73803981D01*
X139200981Y-73922515D01*
X139061600Y-74015647D01*
X138906728Y-74079797D01*
X138742316Y-74112500D01*
X138574684Y-74112500D01*
X138410272Y-74079797D01*
X138255400Y-74015647D01*
X138116019Y-73922515D01*
X137997485Y-73803981D01*
X137904353Y-73664600D01*
X137840203Y-73509728D01*
X137807500Y-73345316D01*
X137807500Y-73177684D01*
X137840203Y-73013272D01*
X137904353Y-72858400D01*
X137997485Y-72719019D01*
X138116019Y-72600485D01*
X138255400Y-72507353D01*
X138410272Y-72443203D01*
X138574684Y-72410500D01*
X138742316Y-72410500D01*
X138906728Y-72443203D01*
X138906728Y-72443203D01*
G37*
G36*
X154146728Y-72443203D02*
X154301600Y-72507353D01*
X154440981Y-72600485D01*
X154559515Y-72719019D01*
X154652647Y-72858400D01*
X154716797Y-73013272D01*
X154749500Y-73177684D01*
X154749500Y-73345316D01*
X154716797Y-73509728D01*
X154652647Y-73664600D01*
X154559515Y-73803981D01*
X154440981Y-73922515D01*
X154301600Y-74015647D01*
X154146728Y-74079797D01*
X153982316Y-74112500D01*
X153814684Y-74112500D01*
X153650272Y-74079797D01*
X153495400Y-74015647D01*
X153356019Y-73922515D01*
X153237485Y-73803981D01*
X153144353Y-73664600D01*
X153080203Y-73509728D01*
X153047500Y-73345316D01*
X153047500Y-73177684D01*
X153080203Y-73013272D01*
X153144353Y-72858400D01*
X153237485Y-72719019D01*
X153356019Y-72600485D01*
X153495400Y-72507353D01*
X153650272Y-72443203D01*
X153814684Y-72410500D01*
X153982316Y-72410500D01*
X154146728Y-72443203D01*
X154146728Y-72443203D01*
G37*
G36*
X138906728Y-69903203D02*
X139061600Y-69967353D01*
X139200981Y-70060485D01*
X139319515Y-70179019D01*
X139412647Y-70318400D01*
X139476797Y-70473272D01*
X139509500Y-70637684D01*
X139509500Y-70805316D01*
X139476797Y-70969728D01*
X139412647Y-71124600D01*
X139319515Y-71263981D01*
X139200981Y-71382515D01*
X139061600Y-71475647D01*
X138906728Y-71539797D01*
X138742316Y-71572500D01*
X138574684Y-71572500D01*
X138410272Y-71539797D01*
X138255400Y-71475647D01*
X138116019Y-71382515D01*
X137997485Y-71263981D01*
X137904353Y-71124600D01*
X137840203Y-70969728D01*
X137807500Y-70805316D01*
X137807500Y-70637684D01*
X137840203Y-70473272D01*
X137904353Y-70318400D01*
X137997485Y-70179019D01*
X138116019Y-70060485D01*
X138255400Y-69967353D01*
X138410272Y-69903203D01*
X138574684Y-69870500D01*
X138742316Y-69870500D01*
X138906728Y-69903203D01*
X138906728Y-69903203D01*
G37*
G36*
X154146728Y-69903203D02*
X154301600Y-69967353D01*
X154440981Y-70060485D01*
X154559515Y-70179019D01*
X154652647Y-70318400D01*
X154716797Y-70473272D01*
X154749500Y-70637684D01*
X154749500Y-70805316D01*
X154716797Y-70969728D01*
X154652647Y-71124600D01*
X154559515Y-71263981D01*
X154440981Y-71382515D01*
X154301600Y-71475647D01*
X154146728Y-71539797D01*
X153982316Y-71572500D01*
X153814684Y-71572500D01*
X153650272Y-71539797D01*
X153495400Y-71475647D01*
X153356019Y-71382515D01*
X153237485Y-71263981D01*
X153144353Y-71124600D01*
X153080203Y-70969728D01*
X153047500Y-70805316D01*
X153047500Y-70637684D01*
X153080203Y-70473272D01*
X153144353Y-70318400D01*
X153237485Y-70179019D01*
X153356019Y-70060485D01*
X153495400Y-69967353D01*
X153650272Y-69903203D01*
X153814684Y-69870500D01*
X153982316Y-69870500D01*
X154146728Y-69903203D01*
X154146728Y-69903203D01*
G37*
G36*
X126890331Y-65768711D02*
X127218092Y-65904474D01*
X127513073Y-66101574D01*
X127763926Y-66352427D01*
X127961026Y-66647408D01*
X128096789Y-66975169D01*
X128166000Y-67323116D01*
X128166000Y-67677884D01*
X128096789Y-68025831D01*
X127961026Y-68353592D01*
X127763926Y-68648573D01*
X127513073Y-68899426D01*
X127218092Y-69096526D01*
X126890331Y-69232289D01*
X126542384Y-69301500D01*
X126187616Y-69301500D01*
X125839669Y-69232289D01*
X125511908Y-69096526D01*
X125216927Y-68899426D01*
X124966074Y-68648573D01*
X124768974Y-68353592D01*
X124633211Y-68025831D01*
X124564000Y-67677884D01*
X124564000Y-67323116D01*
X124633211Y-66975169D01*
X124768974Y-66647408D01*
X124966074Y-66352427D01*
X125216927Y-66101574D01*
X125511908Y-65904474D01*
X125839669Y-65768711D01*
X126187616Y-65699500D01*
X126542384Y-65699500D01*
X126890331Y-65768711D01*
X126890331Y-65768711D01*
G37*
G36*
X167720831Y-65768711D02*
X168048592Y-65904474D01*
X168343573Y-66101574D01*
X168594426Y-66352427D01*
X168791526Y-66647408D01*
X168927289Y-66975169D01*
X168996500Y-67323116D01*
X168996500Y-67677884D01*
X168927289Y-68025831D01*
X168791526Y-68353592D01*
X168594426Y-68648573D01*
X168343573Y-68899426D01*
X168048592Y-69096526D01*
X167720831Y-69232289D01*
X167372884Y-69301500D01*
X167018116Y-69301500D01*
X166670169Y-69232289D01*
X166342408Y-69096526D01*
X166047427Y-68899426D01*
X165796574Y-68648573D01*
X165599474Y-68353592D01*
X165463711Y-68025831D01*
X165394500Y-67677884D01*
X165394500Y-67323116D01*
X165463711Y-66975169D01*
X165599474Y-66647408D01*
X165796574Y-66352427D01*
X166047427Y-66101574D01*
X166342408Y-65904474D01*
X166670169Y-65768711D01*
X167018116Y-65699500D01*
X167372884Y-65699500D01*
X167720831Y-65768711D01*
X167720831Y-65768711D01*
G37*
G36*
X154749500Y-69032500D02*
X153047500Y-69032500D01*
X153047500Y-67330500D01*
X154749500Y-67330500D01*
X154749500Y-69032500D01*
X154749500Y-69032500D01*
G37*
G36*
X138906728Y-67363203D02*
X139061600Y-67427353D01*
X139200981Y-67520485D01*
X139319515Y-67639019D01*
X139412647Y-67778400D01*
X139476797Y-67933272D01*
X139509500Y-68097684D01*
X139509500Y-68265316D01*
X139476797Y-68429728D01*
X139412647Y-68584600D01*
X139319515Y-68723981D01*
X139200981Y-68842515D01*
X139061600Y-68935647D01*
X138906728Y-68999797D01*
X138742316Y-69032500D01*
X138574684Y-69032500D01*
X138410272Y-68999797D01*
X138255400Y-68935647D01*
X138116019Y-68842515D01*
X137997485Y-68723981D01*
X137904353Y-68584600D01*
X137840203Y-68429728D01*
X137807500Y-68265316D01*
X137807500Y-68097684D01*
X137840203Y-67933272D01*
X137904353Y-67778400D01*
X137997485Y-67639019D01*
X138116019Y-67520485D01*
X138255400Y-67427353D01*
X138410272Y-67363203D01*
X138574684Y-67330500D01*
X138742316Y-67330500D01*
X138906728Y-67363203D01*
X138906728Y-67363203D01*
G37*
G36*
X116770728Y-66745703D02*
X116925600Y-66809853D01*
X117064981Y-66902985D01*
X117183515Y-67021519D01*
X117276647Y-67160900D01*
X117340797Y-67315772D01*
X117373500Y-67480184D01*
X117373500Y-67647816D01*
X117340797Y-67812228D01*
X117276647Y-67967100D01*
X117183515Y-68106481D01*
X117064981Y-68225015D01*
X116925600Y-68318147D01*
X116770728Y-68382297D01*
X116606316Y-68415000D01*
X116438684Y-68415000D01*
X116274272Y-68382297D01*
X116119400Y-68318147D01*
X115980019Y-68225015D01*
X115861485Y-68106481D01*
X115768353Y-67967100D01*
X115704203Y-67812228D01*
X115671500Y-67647816D01*
X115671500Y-67480184D01*
X115704203Y-67315772D01*
X115768353Y-67160900D01*
X115861485Y-67021519D01*
X115980019Y-66902985D01*
X116119400Y-66809853D01*
X116274272Y-66745703D01*
X116438684Y-66713000D01*
X116606316Y-66713000D01*
X116770728Y-66745703D01*
X116770728Y-66745703D01*
G37*
G36*
X119310728Y-66745703D02*
X119465600Y-66809853D01*
X119604981Y-66902985D01*
X119723515Y-67021519D01*
X119816647Y-67160900D01*
X119880797Y-67315772D01*
X119913500Y-67480184D01*
X119913500Y-67647816D01*
X119880797Y-67812228D01*
X119816647Y-67967100D01*
X119723515Y-68106481D01*
X119604981Y-68225015D01*
X119465600Y-68318147D01*
X119310728Y-68382297D01*
X119146316Y-68415000D01*
X118978684Y-68415000D01*
X118814272Y-68382297D01*
X118659400Y-68318147D01*
X118520019Y-68225015D01*
X118401485Y-68106481D01*
X118308353Y-67967100D01*
X118244203Y-67812228D01*
X118211500Y-67647816D01*
X118211500Y-67480184D01*
X118244203Y-67315772D01*
X118308353Y-67160900D01*
X118401485Y-67021519D01*
X118520019Y-66902985D01*
X118659400Y-66809853D01*
X118814272Y-66745703D01*
X118978684Y-66713000D01*
X119146316Y-66713000D01*
X119310728Y-66745703D01*
X119310728Y-66745703D01*
G37*
G36*
X174746228Y-66745703D02*
X174901100Y-66809853D01*
X175040481Y-66902985D01*
X175159015Y-67021519D01*
X175252147Y-67160900D01*
X175316297Y-67315772D01*
X175349000Y-67480184D01*
X175349000Y-67647816D01*
X175316297Y-67812228D01*
X175252147Y-67967100D01*
X175159015Y-68106481D01*
X175040481Y-68225015D01*
X174901100Y-68318147D01*
X174746228Y-68382297D01*
X174581816Y-68415000D01*
X174414184Y-68415000D01*
X174249772Y-68382297D01*
X174094900Y-68318147D01*
X173955519Y-68225015D01*
X173836985Y-68106481D01*
X173743853Y-67967100D01*
X173679703Y-67812228D01*
X173647000Y-67647816D01*
X173647000Y-67480184D01*
X173679703Y-67315772D01*
X173743853Y-67160900D01*
X173836985Y-67021519D01*
X173955519Y-66902985D01*
X174094900Y-66809853D01*
X174249772Y-66745703D01*
X174414184Y-66713000D01*
X174581816Y-66713000D01*
X174746228Y-66745703D01*
X174746228Y-66745703D01*
G37*
G36*
X177286228Y-66745703D02*
X177441100Y-66809853D01*
X177580481Y-66902985D01*
X177699015Y-67021519D01*
X177792147Y-67160900D01*
X177856297Y-67315772D01*
X177889000Y-67480184D01*
X177889000Y-67647816D01*
X177856297Y-67812228D01*
X177792147Y-67967100D01*
X177699015Y-68106481D01*
X177580481Y-68225015D01*
X177441100Y-68318147D01*
X177286228Y-68382297D01*
X177121816Y-68415000D01*
X176954184Y-68415000D01*
X176789772Y-68382297D01*
X176634900Y-68318147D01*
X176495519Y-68225015D01*
X176376985Y-68106481D01*
X176283853Y-67967100D01*
X176219703Y-67812228D01*
X176187000Y-67647816D01*
X176187000Y-67480184D01*
X176219703Y-67315772D01*
X176283853Y-67160900D01*
X176376985Y-67021519D01*
X176495519Y-66902985D01*
X176634900Y-66809853D01*
X176789772Y-66745703D01*
X176954184Y-66713000D01*
X177121816Y-66713000D01*
X177286228Y-66745703D01*
X177286228Y-66745703D01*
G37*
M02*
