G04 #@! TF.GenerationSoftware,KiCad,Pcbnew,5.0.2+dfsg1-1~bpo9+1*
G04 #@! TF.CreationDate,2019-05-16T11:20:28+01:00*
G04 #@! TF.ProjectId,arduino_controller_psp_stick,61726475-696e-46f5-9f63-6f6e74726f6c,rev?*
G04 #@! TF.SameCoordinates,Original*
G04 #@! TF.FileFunction,Legend,Top*
G04 #@! TF.FilePolarity,Positive*
%FSLAX46Y46*%
G04 Gerber Fmt 4.6, Leading zero omitted, Abs format (unit mm)*
G04 Created by KiCad (PCBNEW 5.0.2+dfsg1-1~bpo9+1) date Thu 16 May 2019 11:20:28 BST*
%MOMM*%
%LPD*%
G01*
G04 APERTURE LIST*
%ADD10C,0.300000*%
%ADD11C,0.150000*%
G04 APERTURE END LIST*
D10*
X122173928Y-83823928D02*
X121031071Y-83395357D01*
X122173928Y-82966785D01*
X139419071Y-116399571D02*
X140419071Y-116399571D01*
X139419071Y-117899571D01*
X140419071Y-117899571D01*
X141561928Y-117828142D02*
X141419071Y-117899571D01*
X141133357Y-117899571D01*
X140990500Y-117828142D01*
X140919071Y-117685285D01*
X140919071Y-117113857D01*
X140990500Y-116971000D01*
X141133357Y-116899571D01*
X141419071Y-116899571D01*
X141561928Y-116971000D01*
X141633357Y-117113857D01*
X141633357Y-117256714D01*
X140919071Y-117399571D01*
X142276214Y-117899571D02*
X142276214Y-116899571D01*
X142276214Y-117185285D02*
X142347642Y-117042428D01*
X142419071Y-116971000D01*
X142561928Y-116899571D01*
X142704785Y-116899571D01*
X143419071Y-117899571D02*
X143276214Y-117828142D01*
X143204785Y-117756714D01*
X143133357Y-117613857D01*
X143133357Y-117185285D01*
X143204785Y-117042428D01*
X143276214Y-116971000D01*
X143419071Y-116899571D01*
X143633357Y-116899571D01*
X143776214Y-116971000D01*
X143847642Y-117042428D01*
X143919071Y-117185285D01*
X143919071Y-117613857D01*
X143847642Y-117756714D01*
X143776214Y-117828142D01*
X143633357Y-117899571D01*
X143419071Y-117899571D01*
X144204785Y-118042428D02*
X145347642Y-118042428D01*
X146347642Y-117828142D02*
X146204785Y-117899571D01*
X145919071Y-117899571D01*
X145776214Y-117828142D01*
X145704785Y-117756714D01*
X145633357Y-117613857D01*
X145633357Y-117185285D01*
X145704785Y-117042428D01*
X145776214Y-116971000D01*
X145919071Y-116899571D01*
X146204785Y-116899571D01*
X146347642Y-116971000D01*
X147204785Y-117899571D02*
X147061928Y-117828142D01*
X146990500Y-117756714D01*
X146919071Y-117613857D01*
X146919071Y-117185285D01*
X146990500Y-117042428D01*
X147061928Y-116971000D01*
X147204785Y-116899571D01*
X147419071Y-116899571D01*
X147561928Y-116971000D01*
X147633357Y-117042428D01*
X147704785Y-117185285D01*
X147704785Y-117613857D01*
X147633357Y-117756714D01*
X147561928Y-117828142D01*
X147419071Y-117899571D01*
X147204785Y-117899571D01*
X148347642Y-116899571D02*
X148347642Y-117899571D01*
X148347642Y-117042428D02*
X148419071Y-116971000D01*
X148561928Y-116899571D01*
X148776214Y-116899571D01*
X148919071Y-116971000D01*
X148990500Y-117113857D01*
X148990500Y-117899571D01*
X149490500Y-116899571D02*
X150061928Y-116899571D01*
X149704785Y-116399571D02*
X149704785Y-117685285D01*
X149776214Y-117828142D01*
X149919071Y-117899571D01*
X150061928Y-117899571D01*
X150561928Y-117899571D02*
X150561928Y-116899571D01*
X150561928Y-117185285D02*
X150633357Y-117042428D01*
X150704785Y-116971000D01*
X150847642Y-116899571D01*
X150990500Y-116899571D01*
X151704785Y-117899571D02*
X151561928Y-117828142D01*
X151490500Y-117756714D01*
X151419071Y-117613857D01*
X151419071Y-117185285D01*
X151490500Y-117042428D01*
X151561928Y-116971000D01*
X151704785Y-116899571D01*
X151919071Y-116899571D01*
X152061928Y-116971000D01*
X152133357Y-117042428D01*
X152204785Y-117185285D01*
X152204785Y-117613857D01*
X152133357Y-117756714D01*
X152061928Y-117828142D01*
X151919071Y-117899571D01*
X151704785Y-117899571D01*
X153061928Y-117899571D02*
X152919071Y-117828142D01*
X152847642Y-117685285D01*
X152847642Y-116399571D01*
X148292428Y-84676928D02*
X148221000Y-84605500D01*
X148149571Y-84462642D01*
X148149571Y-84105500D01*
X148221000Y-83962642D01*
X148292428Y-83891214D01*
X148435285Y-83819785D01*
X148578142Y-83819785D01*
X148792428Y-83891214D01*
X149649571Y-84748357D01*
X149649571Y-83819785D01*
X148149571Y-82891214D02*
X148149571Y-82748357D01*
X148221000Y-82605500D01*
X148292428Y-82534071D01*
X148435285Y-82462642D01*
X148721000Y-82391214D01*
X149078142Y-82391214D01*
X149363857Y-82462642D01*
X149506714Y-82534071D01*
X149578142Y-82605500D01*
X149649571Y-82748357D01*
X149649571Y-82891214D01*
X149578142Y-83034071D01*
X149506714Y-83105500D01*
X149363857Y-83176928D01*
X149078142Y-83248357D01*
X148721000Y-83248357D01*
X148435285Y-83176928D01*
X148292428Y-83105500D01*
X148221000Y-83034071D01*
X148149571Y-82891214D01*
X149649571Y-80962642D02*
X149649571Y-81819785D01*
X149649571Y-81391214D02*
X148149571Y-81391214D01*
X148363857Y-81534071D01*
X148506714Y-81676928D01*
X148578142Y-81819785D01*
X149649571Y-80248357D02*
X149649571Y-79962642D01*
X149578142Y-79819785D01*
X149506714Y-79748357D01*
X149292428Y-79605500D01*
X149006714Y-79534071D01*
X148435285Y-79534071D01*
X148292428Y-79605500D01*
X148221000Y-79676928D01*
X148149571Y-79819785D01*
X148149571Y-80105500D01*
X148221000Y-80248357D01*
X148292428Y-80319785D01*
X148435285Y-80391214D01*
X148792428Y-80391214D01*
X148935285Y-80319785D01*
X149006714Y-80248357D01*
X149078142Y-80105500D01*
X149078142Y-79819785D01*
X149006714Y-79676928D01*
X148935285Y-79605500D01*
X148792428Y-79534071D01*
X142450357Y-88625357D02*
X142450357Y-89125357D01*
X143236071Y-89125357D02*
X141736071Y-89125357D01*
X141736071Y-88411071D01*
X143236071Y-87196785D02*
X142450357Y-87196785D01*
X142307500Y-87268214D01*
X142236071Y-87411071D01*
X142236071Y-87696785D01*
X142307500Y-87839642D01*
X143164642Y-87196785D02*
X143236071Y-87339642D01*
X143236071Y-87696785D01*
X143164642Y-87839642D01*
X143021785Y-87911071D01*
X142878928Y-87911071D01*
X142736071Y-87839642D01*
X142664642Y-87696785D01*
X142664642Y-87339642D01*
X142593214Y-87196785D01*
X143164642Y-85839642D02*
X143236071Y-85982500D01*
X143236071Y-86268214D01*
X143164642Y-86411071D01*
X143093214Y-86482500D01*
X142950357Y-86553928D01*
X142521785Y-86553928D01*
X142378928Y-86482500D01*
X142307500Y-86411071D01*
X142236071Y-86268214D01*
X142236071Y-85982500D01*
X142307500Y-85839642D01*
X143164642Y-84625357D02*
X143236071Y-84768214D01*
X143236071Y-85053928D01*
X143164642Y-85196785D01*
X143021785Y-85268214D01*
X142450357Y-85268214D01*
X142307500Y-85196785D01*
X142236071Y-85053928D01*
X142236071Y-84768214D01*
X142307500Y-84625357D01*
X142450357Y-84553928D01*
X142593214Y-84553928D01*
X142736071Y-85268214D01*
X143236071Y-83696785D02*
X143164642Y-83839642D01*
X143021785Y-83911071D01*
X141736071Y-83911071D01*
X143164642Y-82553928D02*
X143236071Y-82696785D01*
X143236071Y-82982500D01*
X143164642Y-83125357D01*
X143021785Y-83196785D01*
X142450357Y-83196785D01*
X142307500Y-83125357D01*
X142236071Y-82982500D01*
X142236071Y-82696785D01*
X142307500Y-82553928D01*
X142450357Y-82482500D01*
X142593214Y-82482500D01*
X142736071Y-83196785D01*
X143164642Y-81911071D02*
X143236071Y-81768214D01*
X143236071Y-81482500D01*
X143164642Y-81339642D01*
X143021785Y-81268214D01*
X142950357Y-81268214D01*
X142807500Y-81339642D01*
X142736071Y-81482500D01*
X142736071Y-81696785D01*
X142664642Y-81839642D01*
X142521785Y-81911071D01*
X142450357Y-81911071D01*
X142307500Y-81839642D01*
X142236071Y-81696785D01*
X142236071Y-81482500D01*
X142307500Y-81339642D01*
X143164642Y-80696785D02*
X143236071Y-80553928D01*
X143236071Y-80268214D01*
X143164642Y-80125357D01*
X143021785Y-80053928D01*
X142950357Y-80053928D01*
X142807500Y-80125357D01*
X142736071Y-80268214D01*
X142736071Y-80482500D01*
X142664642Y-80625357D01*
X142521785Y-80696785D01*
X142450357Y-80696785D01*
X142307500Y-80625357D01*
X142236071Y-80482500D01*
X142236071Y-80268214D01*
X142307500Y-80125357D01*
X142236071Y-79625357D02*
X142236071Y-79053928D01*
X141736071Y-79411071D02*
X143021785Y-79411071D01*
X143164642Y-79339642D01*
X143236071Y-79196785D01*
X143236071Y-79053928D01*
X143164642Y-77982500D02*
X143236071Y-78125357D01*
X143236071Y-78411071D01*
X143164642Y-78553928D01*
X143021785Y-78625357D01*
X142450357Y-78625357D01*
X142307500Y-78553928D01*
X142236071Y-78411071D01*
X142236071Y-78125357D01*
X142307500Y-77982500D01*
X142450357Y-77911071D01*
X142593214Y-77911071D01*
X142736071Y-78625357D01*
X143164642Y-76625357D02*
X143236071Y-76768214D01*
X143236071Y-77053928D01*
X143164642Y-77196785D01*
X143093214Y-77268214D01*
X142950357Y-77339642D01*
X142521785Y-77339642D01*
X142378928Y-77268214D01*
X142307500Y-77196785D01*
X142236071Y-77053928D01*
X142236071Y-76768214D01*
X142307500Y-76625357D01*
X143236071Y-75982500D02*
X141736071Y-75982500D01*
X143236071Y-75339642D02*
X142450357Y-75339642D01*
X142307500Y-75411071D01*
X142236071Y-75553928D01*
X142236071Y-75768214D01*
X142307500Y-75911071D01*
X142378928Y-75982500D01*
X118256785Y-70782571D02*
X117542500Y-70782571D01*
X117542500Y-69282571D01*
X137600928Y-108049142D02*
X137815214Y-108120571D01*
X138172357Y-108120571D01*
X138315214Y-108049142D01*
X138386642Y-107977714D01*
X138458071Y-107834857D01*
X138458071Y-107692000D01*
X138386642Y-107549142D01*
X138315214Y-107477714D01*
X138172357Y-107406285D01*
X137886642Y-107334857D01*
X137743785Y-107263428D01*
X137672357Y-107192000D01*
X137600928Y-107049142D01*
X137600928Y-106906285D01*
X137672357Y-106763428D01*
X137743785Y-106692000D01*
X137886642Y-106620571D01*
X138243785Y-106620571D01*
X138458071Y-106692000D01*
X139672357Y-108049142D02*
X139529500Y-108120571D01*
X139243785Y-108120571D01*
X139100928Y-108049142D01*
X139029500Y-107906285D01*
X139029500Y-107334857D01*
X139100928Y-107192000D01*
X139243785Y-107120571D01*
X139529500Y-107120571D01*
X139672357Y-107192000D01*
X139743785Y-107334857D01*
X139743785Y-107477714D01*
X139029500Y-107620571D01*
X140600928Y-108120571D02*
X140458071Y-108049142D01*
X140386642Y-107906285D01*
X140386642Y-106620571D01*
X141743785Y-108049142D02*
X141600928Y-108120571D01*
X141315214Y-108120571D01*
X141172357Y-108049142D01*
X141100928Y-107906285D01*
X141100928Y-107334857D01*
X141172357Y-107192000D01*
X141315214Y-107120571D01*
X141600928Y-107120571D01*
X141743785Y-107192000D01*
X141815214Y-107334857D01*
X141815214Y-107477714D01*
X141100928Y-107620571D01*
X143100928Y-108049142D02*
X142958071Y-108120571D01*
X142672357Y-108120571D01*
X142529500Y-108049142D01*
X142458071Y-107977714D01*
X142386642Y-107834857D01*
X142386642Y-107406285D01*
X142458071Y-107263428D01*
X142529500Y-107192000D01*
X142672357Y-107120571D01*
X142958071Y-107120571D01*
X143100928Y-107192000D01*
X143529500Y-107120571D02*
X144100928Y-107120571D01*
X143743785Y-106620571D02*
X143743785Y-107906285D01*
X143815214Y-108049142D01*
X143958071Y-108120571D01*
X144100928Y-108120571D01*
X123701928Y-84328071D02*
X123273357Y-85470928D01*
X122844785Y-84328071D01*
X124269571Y-82990571D02*
X125412428Y-83419142D01*
X124269571Y-83847714D01*
X122805071Y-82486428D02*
X123233642Y-81343571D01*
X123662214Y-82486428D01*
X176232285Y-70782571D02*
X175732285Y-70068285D01*
X175375142Y-70782571D02*
X175375142Y-69282571D01*
X175946571Y-69282571D01*
X176089428Y-69354000D01*
X176160857Y-69425428D01*
X176232285Y-69568285D01*
X176232285Y-69782571D01*
X176160857Y-69925428D01*
X176089428Y-69996857D01*
X175946571Y-70068285D01*
X175375142Y-70068285D01*
X149336428Y-108049142D02*
X149550714Y-108120571D01*
X149907857Y-108120571D01*
X150050714Y-108049142D01*
X150122142Y-107977714D01*
X150193571Y-107834857D01*
X150193571Y-107692000D01*
X150122142Y-107549142D01*
X150050714Y-107477714D01*
X149907857Y-107406285D01*
X149622142Y-107334857D01*
X149479285Y-107263428D01*
X149407857Y-107192000D01*
X149336428Y-107049142D01*
X149336428Y-106906285D01*
X149407857Y-106763428D01*
X149479285Y-106692000D01*
X149622142Y-106620571D01*
X149979285Y-106620571D01*
X150193571Y-106692000D01*
X150622142Y-107120571D02*
X151193571Y-107120571D01*
X150836428Y-106620571D02*
X150836428Y-107906285D01*
X150907857Y-108049142D01*
X151050714Y-108120571D01*
X151193571Y-108120571D01*
X152336428Y-108120571D02*
X152336428Y-107334857D01*
X152265000Y-107192000D01*
X152122142Y-107120571D01*
X151836428Y-107120571D01*
X151693571Y-107192000D01*
X152336428Y-108049142D02*
X152193571Y-108120571D01*
X151836428Y-108120571D01*
X151693571Y-108049142D01*
X151622142Y-107906285D01*
X151622142Y-107763428D01*
X151693571Y-107620571D01*
X151836428Y-107549142D01*
X152193571Y-107549142D01*
X152336428Y-107477714D01*
X153050714Y-108120571D02*
X153050714Y-107120571D01*
X153050714Y-107406285D02*
X153122142Y-107263428D01*
X153193571Y-107192000D01*
X153336428Y-107120571D01*
X153479285Y-107120571D01*
X153765000Y-107120571D02*
X154336428Y-107120571D01*
X153979285Y-106620571D02*
X153979285Y-107906285D01*
X154050714Y-108049142D01*
X154193571Y-108120571D01*
X154336428Y-108120571D01*
X163068000Y-78831285D02*
X163068000Y-79545571D01*
X162568000Y-78045571D02*
X163068000Y-78831285D01*
X163568000Y-78045571D01*
X169553000Y-71124071D02*
X170553000Y-72624071D01*
X170553000Y-71124071D02*
X169553000Y-72624071D01*
X170160142Y-85871857D02*
X170374428Y-85943285D01*
X170445857Y-86014714D01*
X170517285Y-86157571D01*
X170517285Y-86371857D01*
X170445857Y-86514714D01*
X170374428Y-86586142D01*
X170231571Y-86657571D01*
X169660142Y-86657571D01*
X169660142Y-85157571D01*
X170160142Y-85157571D01*
X170303000Y-85229000D01*
X170374428Y-85300428D01*
X170445857Y-85443285D01*
X170445857Y-85586142D01*
X170374428Y-85729000D01*
X170303000Y-85800428D01*
X170160142Y-85871857D01*
X169660142Y-85871857D01*
X176744357Y-79117000D02*
X177458642Y-79117000D01*
X176601500Y-79545571D02*
X177101500Y-78045571D01*
X177601500Y-79545571D01*
D11*
G04 #@! TO.C,U7*
X157416500Y-100393500D02*
X174942500Y-100393500D01*
X174942500Y-100393500D02*
X174942500Y-117919500D01*
X174942500Y-117919500D02*
X169354500Y-117919500D01*
X163004500Y-117919500D02*
X157416500Y-117919500D01*
X157416500Y-117919500D02*
X157416500Y-112204500D01*
X157416500Y-105981500D02*
X157416500Y-100393500D01*
G04 #@! TO.C,U1*
X137388500Y-97391500D02*
X155168500Y-97391500D01*
X155168500Y-97391500D02*
X155168500Y-66911500D01*
X155168500Y-66911500D02*
X150088500Y-66911500D01*
X150088500Y-66911500D02*
X150088500Y-64371500D01*
X150088500Y-64371500D02*
X142468500Y-64371500D01*
X142468500Y-64371500D02*
X142468500Y-66911500D01*
X142468500Y-66911500D02*
X137388500Y-66911500D01*
X137388500Y-66911500D02*
X137388500Y-97391500D01*
G04 #@! TO.C,SW9*
X180149500Y-86169500D02*
X174180500Y-86169500D01*
X174180500Y-86169500D02*
X174180500Y-80200500D01*
X174180500Y-80200500D02*
X180149500Y-80200500D01*
X180149500Y-80200500D02*
X180149500Y-86169500D01*
G04 #@! TO.C,SW1*
X166052500Y-80264000D02*
X166052500Y-86233000D01*
X160083500Y-80264000D02*
X166052500Y-80264000D01*
X160083500Y-86233000D02*
X160083500Y-80264000D01*
X166052500Y-86233000D02*
X160083500Y-86233000D01*
G04 #@! TO.C,SW2*
X172974000Y-79311500D02*
X167005000Y-79311500D01*
X167005000Y-79311500D02*
X167005000Y-73342500D01*
X167005000Y-73342500D02*
X172974000Y-73342500D01*
X172974000Y-73342500D02*
X172974000Y-79311500D01*
G04 #@! TO.C,SW3*
X167068500Y-87312500D02*
X173037500Y-87312500D01*
X173037500Y-87312500D02*
X173037500Y-93281500D01*
X173037500Y-93281500D02*
X167068500Y-93281500D01*
X167068500Y-93281500D02*
X167068500Y-87312500D01*
G04 #@! TO.C,SW4*
X137795000Y-100012500D02*
X143764000Y-100012500D01*
X143764000Y-100012500D02*
X143764000Y-105981500D01*
X143764000Y-105981500D02*
X137795000Y-105981500D01*
X137795000Y-105981500D02*
X137795000Y-100012500D01*
G04 #@! TO.C,SW5*
X154749500Y-100012500D02*
X154749500Y-105981500D01*
X148780500Y-100012500D02*
X154749500Y-100012500D01*
X148780500Y-105981500D02*
X148780500Y-100012500D01*
X154749500Y-105981500D02*
X148780500Y-105981500D01*
G04 #@! TO.C,SW6*
X120269000Y-73469500D02*
X126238000Y-73469500D01*
X126238000Y-73469500D02*
X126238000Y-79438500D01*
X126238000Y-79438500D02*
X120269000Y-79438500D01*
X120269000Y-79438500D02*
X120269000Y-73469500D01*
G04 #@! TO.C,SW7*
X120269000Y-93535500D02*
X120269000Y-87566500D01*
X126238000Y-93535500D02*
X120269000Y-93535500D01*
X126238000Y-87566500D02*
X126238000Y-93535500D01*
X120269000Y-87566500D02*
X126238000Y-87566500D01*
G04 #@! TO.C,SW8*
X127190500Y-80327500D02*
X133159500Y-80327500D01*
X133159500Y-80327500D02*
X133159500Y-86296500D01*
X133159500Y-86296500D02*
X127190500Y-86296500D01*
X127190500Y-86296500D02*
X127190500Y-80327500D01*
G04 #@! TO.C,SW10*
X113220500Y-86360000D02*
X113220500Y-80391000D01*
X119189500Y-86360000D02*
X113220500Y-86360000D01*
X119189500Y-80391000D02*
X119189500Y-86360000D01*
X113220500Y-80391000D02*
X119189500Y-80391000D01*
G04 #@! TO.C,U6*
X117602000Y-105981500D02*
X117602000Y-100393500D01*
X117602000Y-117919500D02*
X117602000Y-112204500D01*
X123190000Y-117919500D02*
X117602000Y-117919500D01*
X135128000Y-117919500D02*
X129540000Y-117919500D01*
X135128000Y-100393500D02*
X135128000Y-117919500D01*
X117602000Y-100393500D02*
X135128000Y-100393500D01*
G04 #@! TO.C,U3*
X116740569Y-117411500D02*
G75*
G03X116740569Y-117411500I-3012069J0D01*
G01*
G04 #@! TO.C,U5*
X182590069Y-117411500D02*
G75*
G03X182590069Y-117411500I-3012069J0D01*
G01*
G04 #@! TO.C,U4*
X170207569Y-67500500D02*
G75*
G03X170207569Y-67500500I-3012069J0D01*
G01*
G04 #@! TO.C,U2*
X129377069Y-67500500D02*
G75*
G03X129377069Y-67500500I-3012069J0D01*
G01*
G04 #@! TO.C,SW11*
X115252500Y-66294000D02*
X115252500Y-68834000D01*
X115252500Y-67564000D02*
X115252500Y-66294000D01*
X120332500Y-67564000D02*
X120332500Y-66294000D01*
X120332500Y-67564000D02*
X120332500Y-68834000D01*
X117792500Y-66294000D02*
X122301000Y-66294000D01*
X117792500Y-66294000D02*
X113284000Y-66294000D01*
X113284000Y-68834000D02*
X117792500Y-68834000D01*
X113284000Y-59817000D02*
X113284000Y-68834000D01*
X122301000Y-59817000D02*
X113284000Y-59817000D01*
X122301000Y-68834000D02*
X122301000Y-59817000D01*
X117792500Y-68834000D02*
X122301000Y-68834000D01*
G04 #@! TO.C,SW12*
X175768000Y-68834000D02*
X180276500Y-68834000D01*
X180276500Y-68834000D02*
X180276500Y-59817000D01*
X180276500Y-59817000D02*
X171259500Y-59817000D01*
X171259500Y-59817000D02*
X171259500Y-68834000D01*
X171259500Y-68834000D02*
X175768000Y-68834000D01*
X175768000Y-66294000D02*
X171259500Y-66294000D01*
X175768000Y-66294000D02*
X180276500Y-66294000D01*
X178308000Y-67564000D02*
X178308000Y-68834000D01*
X178308000Y-67564000D02*
X178308000Y-66294000D01*
X173228000Y-67564000D02*
X173228000Y-66294000D01*
X173228000Y-66294000D02*
X173228000Y-68834000D01*
G04 #@! TD*
M02*
